<svg xmlns="http://www.w3.org/2000/svg" xmlns:xlink="http://www.w3.org/1999/xlink" width="500" zoomAndPan="magnify" viewBox="0 0 375 374.999991" height="500" preserveAspectRatio="xMidYMid meet" version="1.2"><g id="e6d5602623"><path style=" stroke:none;fill-rule:evenodd;fill:#fedd3a;fill-opacity:1;" d="M 364.296875 136.992188 C 358.867188 127.636719 349.589844 124.3125 340.183594 120.992188 C 316.90625 112.941406 292.835938 107.210938 268.773438 101.921875 C 258.359375 99.382812 250.304688 94.132812 245.230469 84.25 C 238.011719 70.957031 230.4375 58.1875 222.167969 45.542969 C 203.746094 17.425781 182.007812 16.546875 161.65625 43.753906 C 151.109375 57.621094 141.785156 72.445312 132.957031 87.398438 C 126.300781 98.421875 117.285156 104.277344 104.734375 106.640625 C 81.410156 112.15625 58.132812 117.09375 36.164062 126.628906 C 13.058594 136.992188 8.769531 152.871094 22.691406 174.601562 C 34.84375 193.757812 51.125 209.765625 66.003906 226.820312 C 73.089844 235.128906 75.761719 243.832031 74.625 255.242188 C 72.046875 278.601562 68.371094 302.214844 72.792969 325.832031 C 76.722656 346.558594 82.890625 353.734375 100.039062 355.042969 C 113.570312 356.089844 125.382812 350.761719 136.496094 344.632812 C 150.453125 336.765625 164.371094 327.53125 178.335938 318.917969 C 195.4375 308.070312 196.882812 308.335938 213.292969 319.664062 C 232.898438 332.824219 252.417969 346.164062 275.035156 353.027344 C 291.355469 358.101562 304.441406 350.015625 308.078125 333.4375 C 312.75 312.710938 309.910156 291.894531 306.71875 271.648438 C 303.085938 249.644531 306.144531 231.1875 324.261719 215.972656 C 337.265625 204.78125 349.421875 192.179688 359.222656 177.878906 C 367.890625 165.246094 375.066406 151.953125 364.296875 136.992188 Z M 364.296875 136.992188 "/><path style=" stroke:none;fill-rule:nonzero;fill:#ff8c75;fill-opacity:1;" d="M 294.855469 195.332031 C 294.855469 207.050781 283.035156 216.765625 268.421875 216.765625 C 253.808594 216.765625 241.992188 207.050781 241.992188 195.332031 C 241.992188 183.480469 253.8125 173.859375 268.421875 173.859375 C 283.035156 173.859375 294.855469 183.480469 294.855469 195.332031 Z M 294.855469 195.332031 "/><path style=" stroke:none;fill-rule:nonzero;fill:#ff4347;fill-opacity:0.6;" d="M 268.558594 202.714844 C 267.230469 202.714844 266.15625 201.636719 266.15625 200.316406 L 266.15625 190.34375 C 266.15625 189.019531 267.230469 187.949219 268.558594 187.949219 C 269.882812 187.949219 270.957031 189.023438 270.957031 190.34375 L 270.957031 200.316406 C 270.957031 201.640625 269.882812 202.714844 268.558594 202.714844 Z M 268.558594 202.714844 "/><path style=" stroke:none;fill-rule:nonzero;fill:#ff4347;fill-opacity:0.6;" d="M 282.378906 202.714844 C 281.140625 202.714844 280.082031 201.753906 279.988281 200.492188 L 279.246094 190.527344 C 279.148438 189.199219 280.140625 188.050781 281.460938 187.957031 C 282.824219 187.847656 283.933594 188.851562 284.03125 190.171875 L 284.773438 200.140625 C 284.867188 201.464844 283.878906 202.613281 282.558594 202.707031 C 282.5 202.710938 282.4375 202.714844 282.378906 202.714844 Z M 282.378906 202.714844 "/><path style=" stroke:none;fill-rule:nonzero;fill:#ff8c75;fill-opacity:1;" d="M 142.492188 195.332031 C 142.492188 207.050781 130.632812 216.765625 115.972656 216.765625 C 101.402344 216.765625 89.546875 207.050781 89.546875 195.332031 C 89.546875 183.480469 101.402344 173.859375 115.972656 173.859375 C 130.632812 173.859375 142.492188 183.480469 142.492188 195.332031 Z M 142.492188 195.332031 "/><path style=" stroke:none;fill-rule:nonzero;fill:#ff4347;fill-opacity:0.6;" d="M 104.070312 202.800781 C 102.738281 202.800781 101.671875 201.726562 101.671875 200.402344 L 101.671875 190.390625 C 101.671875 189.066406 102.738281 187.992188 104.070312 187.992188 C 105.398438 187.992188 106.464844 189.066406 106.464844 190.390625 L 106.464844 200.402344 C 106.464844 201.726562 105.398438 202.800781 104.070312 202.800781 Z M 104.070312 202.800781 "/><path style=" stroke:none;fill-rule:nonzero;fill:#ff4347;fill-opacity:0.6;" d="M 117.894531 202.800781 C 116.648438 202.800781 115.589844 201.832031 115.507812 200.574219 L 114.804688 190.558594 C 114.710938 189.238281 115.703125 188.089844 117.027344 188 C 118.335938 187.917969 119.5 188.90625 119.585938 190.222656 L 120.289062 200.234375 C 120.386719 201.554688 119.386719 202.703125 118.066406 202.792969 C 118.007812 202.800781 117.949219 202.800781 117.894531 202.800781 Z M 117.894531 202.800781 "/><path style=" stroke:none;fill-rule:nonzero;fill:#662a10;fill-opacity:1;" d="M 190.445312 226.910156 C 173.824219 226.910156 160.253906 215.585938 160.253906 201.628906 C 160.253906 199.886719 161.699219 198.441406 163.582031 198.441406 L 217.402344 198.441406 C 219.238281 198.441406 220.679688 199.886719 220.679688 201.628906 C 220.679688 215.585938 207.164062 226.910156 190.445312 226.910156 Z M 167.121094 204.867188 C 169.09375 213.789062 178.769531 220.527344 190.445312 220.527344 C 202.179688 220.527344 211.933594 213.789062 213.8125 204.867188 Z M 167.121094 204.867188 "/><path style=" stroke:none;fill-rule:evenodd;fill:#662a10;fill-opacity:1;" d="M 171.023438 171.277344 C 171.023438 184.269531 160.441406 194.890625 147.433594 194.890625 C 134.433594 194.890625 123.894531 184.269531 123.894531 171.277344 C 123.894531 158.335938 134.433594 147.75 147.433594 147.75 C 160.4375 147.75 171.023438 158.339844 171.023438 171.277344 Z M 171.023438 171.277344 "/><path style=" stroke:none;fill-rule:evenodd;fill:#ffffff;fill-opacity:1;" d="M 152.820312 164.367188 C 152.820312 169.703125 148.347656 174.214844 142.929688 174.214844 C 137.503906 174.214844 133.167969 169.703125 133.167969 164.367188 C 133.167969 158.949219 137.503906 154.527344 142.929688 154.527344 C 148.347656 154.527344 152.820312 158.949219 152.820312 164.367188 Z M 152.820312 164.367188 "/><path style=" stroke:none;fill-rule:evenodd;fill:#ffffff;fill-opacity:1;" d="M 160.34375 182.304688 C 160.34375 184.535156 158.378906 186.367188 156.140625 186.367188 C 153.863281 186.367188 152.027344 184.535156 152.027344 182.304688 C 152.027344 179.9375 153.863281 178.101562 156.140625 178.101562 C 158.378906 178.101562 160.34375 179.9375 160.34375 182.304688 Z M 160.34375 182.304688 "/><path style=" stroke:none;fill-rule:evenodd;fill:#662a10;fill-opacity:1;" d="M 260.460938 171.277344 C 260.460938 184.269531 249.960938 194.890625 236.964844 194.890625 C 223.964844 194.890625 213.371094 184.269531 213.371094 171.277344 C 213.371094 158.335938 223.964844 147.75 236.964844 147.75 C 249.960938 147.75 260.460938 158.339844 260.460938 171.277344 Z M 260.460938 171.277344 "/><path style=" stroke:none;fill-rule:evenodd;fill:#ffffff;fill-opacity:1;" d="M 242.257812 164.367188 C 242.257812 169.703125 237.878906 174.214844 232.460938 174.214844 C 227.027344 174.214844 222.609375 169.703125 222.609375 164.367188 C 222.609375 158.949219 227.027344 154.527344 232.460938 154.527344 C 237.878906 154.527344 242.257812 158.949219 242.257812 164.367188 Z M 242.257812 164.367188 "/><path style=" stroke:none;fill-rule:evenodd;fill:#ffffff;fill-opacity:1;" d="M 249.777344 182.304688 C 249.777344 184.535156 247.9375 186.367188 245.667969 186.367188 C 243.304688 186.367188 241.46875 184.535156 241.46875 182.304688 C 241.46875 179.9375 243.304688 178.101562 245.667969 178.101562 C 247.9375 178.101562 249.777344 179.9375 249.777344 182.304688 Z M 249.777344 182.304688 "/><path style=" stroke:none;fill-rule:nonzero;fill:#ffe500;fill-opacity:1;" d="M 352.707031 262.992188 C 346.96875 247.640625 350.683594 251.261719 335.199219 245.625 C 350.683594 240.117188 346.96875 243.617188 352.707031 228.398438 C 358.472656 243.617188 354.753906 240.117188 370.160156 245.625 C 354.753906 251.261719 358.472656 247.640625 352.707031 262.992188 Z M 352.707031 262.992188 "/><path style=" stroke:none;fill-rule:nonzero;fill:#ffe500;fill-opacity:1;" d="M 352.707031 266.890625 C 352.703125 266.890625 352.703125 266.890625 352.699219 266.890625 C 351.070312 266.890625 349.613281 265.878906 349.046875 264.355469 C 348.152344 261.949219 347.476562 260.003906 346.929688 258.410156 C 345.117188 253.148438 345.117188 253.148438 339.730469 251.332031 C 338.148438 250.796875 336.230469 250.148438 333.867188 249.289062 C 332.320312 248.730469 331.292969 247.253906 331.296875 245.609375 C 331.304688 243.964844 332.34375 242.503906 333.894531 241.949219 C 336.183594 241.136719 338.058594 240.515625 339.609375 240.003906 C 345.113281 238.183594 345.113281 238.183594 346.917969 232.972656 C 347.46875 231.378906 348.148438 229.429688 349.054688 227.023438 C 349.621094 225.5 351.074219 224.496094 352.699219 224.492188 C 352.707031 224.492188 352.707031 224.492188 352.707031 224.492188 C 354.324219 224.492188 355.777344 225.496094 356.355469 227.011719 C 357.273438 229.429688 357.953125 231.386719 358.511719 232.984375 C 360.324219 238.183594 360.324219 238.183594 365.800781 240.007812 C 367.34375 240.515625 369.207031 241.136719 371.476562 241.949219 C 373.015625 242.503906 374.054688 243.964844 374.058594 245.609375 C 374.066406 247.25 373.039062 248.722656 371.503906 249.285156 C 369.15625 250.144531 367.246094 250.789062 365.675781 251.324219 C 360.3125 253.140625 360.3125 253.140625 358.492188 258.394531 C 357.941406 259.988281 357.265625 261.941406 356.359375 264.359375 C 355.78125 265.882812 354.324219 266.890625 352.707031 266.890625 Z M 346.847656 245.65625 C 349.949219 247.027344 351.335938 248.453125 352.714844 251.621094 C 354.101562 248.453125 355.484375 247.027344 358.570312 245.65625 C 355.484375 244.292969 354.097656 242.863281 352.714844 239.707031 C 351.332031 242.863281 349.945312 244.292969 346.847656 245.65625 Z M 346.847656 245.65625 "/><path style=" stroke:none;fill-rule:nonzero;fill:#ffe500;fill-opacity:1;" d="M 86.617188 81.363281 C 76.984375 55.949219 83.285156 61.988281 57.507812 52.671875 C 83.285156 43.183594 76.984375 49.304688 86.617188 23.898438 C 96.152344 49.304688 89.976562 43.1875 115.570312 52.671875 C 89.976562 61.988281 96.152344 55.953125 86.617188 81.363281 Z M 86.617188 81.363281 "/><path style=" stroke:none;fill-rule:nonzero;fill:#ffe500;fill-opacity:1;" d="M 86.617188 87.855469 C 83.917969 87.855469 81.5 86.183594 80.539062 83.660156 C 79 79.601562 77.867188 76.335938 76.941406 73.671875 C 75.421875 69.324219 74.421875 66.449219 73.527344 65.574219 C 72.597656 64.667969 69.605469 63.667969 65.074219 62.152344 C 62.445312 61.273438 59.242188 60.203125 55.304688 58.773438 C 52.734375 57.847656 51.027344 55.417969 51.019531 52.691406 C 51.011719 49.960938 52.707031 47.519531 55.269531 46.574219 C 59.257812 45.109375 62.488281 44.011719 65.136719 43.109375 C 69.636719 41.578125 72.601562 40.566406 73.53125 39.660156 C 74.433594 38.773438 75.4375 35.898438 76.957031 31.546875 C 77.882812 28.894531 79.011719 25.636719 80.542969 21.597656 C 81.503906 19.070312 83.925781 17.40625 86.621094 17.40625 C 86.625 17.40625 86.628906 17.40625 86.628906 17.40625 C 89.339844 17.410156 91.75 19.085938 92.699219 21.617188 C 94.191406 25.589844 95.304688 28.800781 96.21875 31.425781 C 97.742188 35.839844 98.75 38.753906 99.65625 39.65625 C 100.574219 40.5625 103.523438 41.570312 107.984375 43.097656 C 110.621094 44.003906 113.847656 45.105469 117.835938 46.582031 C 120.390625 47.527344 122.082031 49.972656 122.074219 52.691406 C 122.0625 55.414062 120.359375 57.839844 117.800781 58.773438 C 113.863281 60.203125 110.664062 61.28125 108.042969 62.164062 C 103.550781 63.675781 100.578125 64.671875 99.65625 65.578125 C 98.753906 66.472656 97.746094 69.382812 96.226562 73.789062 C 95.3125 76.429688 94.195312 79.652344 92.695312 83.640625 C 91.746094 86.167969 89.335938 87.84375 86.628906 87.851562 C 86.625 87.855469 86.617188 87.855469 86.617188 87.855469 Z M 76.765625 52.625 C 81.984375 54.898438 84.289062 57.246094 86.601562 62.515625 C 88.910156 57.246094 91.214844 54.902344 96.410156 52.625 C 91.214844 50.332031 88.910156 47.992188 86.601562 42.734375 C 84.285156 47.992188 81.984375 50.332031 76.765625 52.625 Z M 76.765625 52.625 "/><path style=" stroke:none;fill-rule:nonzero;fill:#ffe500;fill-opacity:1;" d="M 14.714844 118.890625 C 10.828125 108.304688 13.359375 110.792969 2.679688 106.90625 C 13.359375 102.964844 10.828125 105.550781 14.714844 95.011719 C 18.742188 105.550781 16.160156 102.964844 26.796875 106.90625 C 16.160156 110.792969 18.742188 108.304688 14.714844 118.890625 Z M 14.714844 118.890625 "/><path style=" stroke:none;fill-rule:nonzero;fill:#ffe500;fill-opacity:1;" d="M 14.714844 121.578125 C 14.710938 121.578125 14.703125 121.578125 14.699219 121.578125 C 13.582031 121.570312 12.585938 120.867188 12.195312 119.8125 C 11.589844 118.171875 11.132812 116.835938 10.769531 115.738281 C 9.53125 112.089844 9.53125 112.089844 5.804688 110.832031 C 4.710938 110.46875 3.390625 110.019531 1.761719 109.429688 C 0.703125 109.042969 -0.00390625 108.035156 -0.0078125 106.90625 C -0.0117188 105.78125 0.695312 104.773438 1.753906 104.378906 C 3.464844 103.753906 4.839844 103.28125 5.957031 102.90625 C 9.550781 101.6875 9.550781 101.6875 10.785156 98.078125 C 11.152344 96.996094 11.597656 95.691406 12.195312 94.078125 C 12.582031 93.03125 13.582031 92.328125 14.699219 92.320312 C 15.917969 92.410156 16.832031 93.003906 17.230469 94.050781 C 17.855469 95.691406 18.324219 97.015625 18.710938 98.105469 C 19.980469 101.695312 19.980469 101.695312 23.5625 102.917969 C 24.671875 103.292969 26.039062 103.757812 27.730469 104.382812 C 28.789062 104.777344 29.488281 105.78125 29.484375 106.90625 C 29.484375 108.035156 28.773438 109.042969 27.722656 109.425781 C 26.109375 110.015625 24.796875 110.460938 23.722656 110.824219 C 20.003906 112.085938 20.003906 112.085938 18.734375 115.703125 C 18.347656 116.8125 17.871094 118.164062 17.234375 119.839844 C 16.835938 120.886719 15.835938 121.578125 14.714844 121.578125 Z M 10.652344 106.902344 C 12.835938 107.855469 13.804688 108.839844 14.757812 111.039062 C 15.730469 108.839844 16.695312 107.855469 18.867188 106.902344 C 16.695312 105.953125 15.734375 104.992188 14.757812 102.808594 C 13.804688 104.992188 12.835938 105.953125 10.652344 106.902344 Z M 10.652344 106.902344 "/></g></svg>