<svg xmlns="http://www.w3.org/2000/svg" xmlns:xlink="http://www.w3.org/1999/xlink" width="500" zoomAndPan="magnify" viewBox="0 0 375 374.999991" height="500" preserveAspectRatio="xMidYMid meet" version="1.2"><g id="7545a2a858"><path style=" stroke:none;fill-rule:evenodd;fill:#fedd3a;fill-opacity:1;" d="M 363.933594 135.824219 C 358.371094 126.25 348.886719 122.847656 339.214844 119.449219 C 315.445312 111.210938 290.816406 105.347656 266.144531 99.933594 C 255.488281 97.339844 247.25 91.964844 242.058594 81.855469 C 234.671875 68.253906 226.917969 55.179688 218.507812 42.246094 C 199.648438 13.480469 177.398438 12.582031 156.535156 40.414062 C 145.789062 54.609375 136.210938 69.773438 127.164062 85.074219 C 120.359375 96.355469 111.136719 102.347656 98.28125 104.769531 C 74.464844 110.410156 50.597656 115.464844 28.117188 125.21875 C 4.574219 135.824219 0.09375 152.070312 14.332031 174.304688 C 26.78125 193.90625 43.4375 210.289062 58.660156 227.738281 C 65.917969 236.242188 68.6875 245.148438 67.527344 256.824219 C 64.835938 280.722656 61.074219 304.886719 65.648438 329.050781 C 69.679688 350.265625 75.945312 357.601562 93.5 358.945312 C 107.378906 360.019531 119.417969 354.5625 130.796875 348.296875 C 145.082031 340.246094 159.3125 330.800781 173.640625 321.984375 C 191.105469 310.882812 192.585938 311.15625 209.417969 322.75 C 229.4375 336.214844 249.402344 349.863281 272.550781 356.890625 C 289.296875 362.078125 302.636719 353.800781 306.355469 336.84375 C 311.144531 315.632812 308.234375 294.332031 304.972656 273.613281 C 301.253906 251.101562 304.386719 232.214844 322.964844 216.644531 C 336.21875 205.191406 348.710938 192.300781 358.746094 177.667969 C 367.609375 164.734375 374.898438 151.132812 363.933594 135.824219 Z M 363.933594 135.824219 "/><path style=" stroke:none;fill-rule:nonzero;fill:#662a10;fill-opacity:1;" d="M 159.496094 175.117188 C 159.496094 183.4375 154.476562 190.328125 148.300781 190.328125 C 142.027344 190.328125 136.96875 183.4375 136.96875 175.117188 C 136.96875 166.878906 142.027344 159.988281 148.300781 159.988281 C 154.472656 159.988281 159.496094 166.878906 159.496094 175.117188 Z M 159.496094 175.117188 "/><path style=" stroke:none;fill-rule:nonzero;fill:#662a10;fill-opacity:1;" d="M 237.492188 175.117188 C 237.492188 183.4375 232.425781 190.328125 226.253906 190.328125 C 219.984375 190.328125 214.921875 183.4375 214.921875 175.117188 C 214.921875 166.878906 219.984375 159.988281 226.253906 159.988281 C 232.425781 159.988281 237.492188 166.878906 237.492188 175.117188 Z M 237.492188 175.117188 "/><path style=" stroke:none;fill-rule:nonzero;fill:#ff8c75;fill-opacity:1;" d="M 292.878906 195.519531 C 292.878906 207.511719 280.742188 217.453125 265.789062 217.453125 C 250.886719 217.453125 238.742188 207.511719 238.742188 195.519531 C 238.742188 183.394531 250.886719 173.554688 265.789062 173.554688 C 280.742188 173.550781 292.878906 183.394531 292.878906 195.519531 Z M 292.878906 195.519531 "/><path style=" stroke:none;fill-rule:nonzero;fill:#ff4347;fill-opacity:0.6;" d="M 265.96875 203.074219 C 264.609375 203.074219 263.507812 201.976562 263.507812 200.621094 L 263.507812 190.421875 C 263.507812 189.066406 264.609375 187.964844 265.96875 187.964844 C 267.328125 187.964844 268.421875 189.0625 268.421875 190.421875 L 268.421875 200.621094 C 268.421875 201.972656 267.328125 203.074219 265.96875 203.074219 Z M 265.96875 203.074219 "/><path style=" stroke:none;fill-rule:nonzero;fill:#ff4347;fill-opacity:0.6;" d="M 280.113281 203.074219 C 278.832031 203.074219 277.757812 202.085938 277.664062 200.792969 L 276.953125 190.59375 C 276.851562 189.238281 277.871094 188.070312 279.226562 187.972656 C 280.59375 187.898438 281.75 188.898438 281.84375 190.25 L 282.558594 200.449219 C 282.660156 201.800781 281.636719 202.972656 280.289062 203.066406 C 280.234375 203.070312 280.171875 203.074219 280.113281 203.074219 Z M 280.113281 203.074219 "/><path style=" stroke:none;fill-rule:nonzero;fill:#ff8c75;fill-opacity:1;" d="M 136.96875 195.519531 C 136.96875 207.511719 124.839844 217.453125 109.890625 217.453125 C 94.929688 217.453125 82.839844 207.511719 82.839844 195.519531 C 82.839844 183.394531 94.929688 173.554688 109.890625 173.554688 C 124.835938 173.550781 136.96875 183.394531 136.96875 195.519531 Z M 136.96875 195.519531 "/><path style=" stroke:none;fill-rule:nonzero;fill:#ff4347;fill-opacity:0.6;" d="M 97.660156 203.164062 C 96.304688 203.164062 95.210938 202.066406 95.210938 200.710938 L 95.210938 190.464844 C 95.210938 189.109375 96.304688 188.011719 97.660156 188.011719 C 99.015625 188.011719 100.121094 189.109375 100.121094 190.464844 L 100.121094 200.710938 C 100.121094 202.066406 99.019531 203.164062 97.660156 203.164062 Z M 97.660156 203.164062 "/><path style=" stroke:none;fill-rule:nonzero;fill:#ff4347;fill-opacity:0.6;" d="M 111.851562 203.164062 C 110.574219 203.164062 109.503906 202.175781 109.410156 200.882812 L 108.691406 190.636719 C 108.597656 189.285156 109.605469 188.109375 110.964844 188.019531 C 112.316406 187.929688 113.496094 188.945312 113.585938 190.292969 L 114.300781 200.539062 C 114.402344 201.886719 113.378906 203.0625 112.023438 203.15625 C 111.96875 203.164062 111.910156 203.164062 111.851562 203.164062 Z M 111.851562 203.164062 "/><path style=" stroke:none;fill-rule:nonzero;fill:#662a10;fill-opacity:1;" d="M 168.445312 162.585938 C 167.914062 162.585938 167.332031 162.402344 166.878906 162.226562 L 137.019531 146.652344 C 135.359375 145.84375 134.738281 143.75 135.582031 142.09375 C 136.390625 140.390625 138.535156 139.765625 140.242188 140.613281 L 170.058594 156.144531 C 171.671875 156.992188 172.34375 159.050781 171.496094 160.707031 C 170.910156 161.867188 169.613281 162.585938 168.445312 162.585938 Z M 168.445312 162.585938 "/><path style=" stroke:none;fill-rule:nonzero;fill:#662a10;fill-opacity:1;" d="M 202.027344 162.585938 C 200.824219 162.585938 199.613281 161.867188 198.984375 160.703125 C 198.179688 159.050781 198.804688 156.992188 200.464844 156.144531 L 230.371094 140.609375 C 232.027344 139.761719 234.085938 140.390625 234.9375 142.089844 C 235.835938 143.746094 235.167969 145.84375 233.460938 146.652344 L 203.59375 162.222656 C 203.109375 162.40625 202.566406 162.585938 202.027344 162.585938 Z M 202.027344 162.585938 "/><path style=" stroke:none;fill-rule:nonzero;fill:#662a10;fill-opacity:1;" d="M 158.058594 211.628906 C 157.257812 211.628906 156.449219 211.359375 155.871094 210.738281 C 154.476562 209.523438 154.210938 207.429688 155.46875 205.992188 C 155.722656 205.628906 182.101562 175.601562 218.953125 201.382812 C 220.476562 202.410156 220.929688 204.605469 219.804688 206.125 C 218.734375 207.691406 216.625 208.007812 215.015625 206.933594 C 183.136719 184.6875 161.550781 209.390625 160.703125 210.378906 C 160.03125 211.179688 158.953125 211.628906 158.058594 211.628906 Z M 158.058594 211.628906 "/><path style=" stroke:none;fill-rule:nonzero;fill:#f37f00;fill-opacity:1;" d="M 227.640625 124.3125 C 226.027344 124.3125 224.5 123.339844 223.867188 121.75 C 223.042969 119.667969 224.058594 117.304688 226.140625 116.480469 C 237.890625 111.824219 239.164062 107.957031 239.277344 106.882812 C 239.484375 104.804688 236.964844 102.664062 236.328125 102.246094 C 234.460938 101.011719 233.941406 98.496094 235.175781 96.625 C 236.410156 94.753906 238.925781 94.238281 240.796875 95.46875 C 243.515625 97.261719 247.949219 101.855469 247.347656 107.710938 C 246.691406 114.085938 240.730469 119.417969 229.132812 124.019531 C 228.648438 124.214844 228.140625 124.3125 227.640625 124.3125 Z M 227.640625 124.3125 "/><path style=" stroke:none;fill-rule:nonzero;fill:#f37f00;fill-opacity:1;" d="M 261.753906 139.339844 C 260.160156 139.339844 258.636719 138.390625 258 136.816406 C 255.445312 130.574219 252.558594 127 249.867188 126.753906 C 246.511719 126.449219 242.390625 131.125 240.914062 133.4375 C 239.710938 135.320312 237.207031 135.882812 235.3125 134.679688 C 233.429688 133.480469 232.863281 130.984375 234.054688 129.09375 C 234.785156 127.941406 241.492188 117.851562 250.566406 118.671875 C 256.625 119.203125 261.644531 124.277344 265.519531 133.75 C 266.359375 135.824219 265.363281 138.191406 263.292969 139.042969 C 262.789062 139.246094 262.269531 139.339844 261.753906 139.339844 Z M 261.753906 139.339844 "/><path style=" stroke:none;fill-rule:nonzero;fill:#f37f00;fill-opacity:1;" d="M 260.667969 102.21875 C 258.410156 102.21875 256.347656 101.742188 254.5 100.789062 C 248.253906 97.578125 247.332031 90.511719 247.242188 89.714844 C 247.007812 87.484375 248.625 85.488281 250.851562 85.25 C 253.066406 85.019531 255.058594 86.609375 255.316406 88.820312 C 255.332031 88.960938 255.824219 92.375 258.25 93.597656 C 260.675781 94.808594 264.910156 93.835938 270.191406 90.851562 C 272.148438 89.757812 274.621094 90.441406 275.722656 92.394531 C 276.820312 94.347656 276.136719 96.820312 274.175781 97.921875 C 269.109375 100.78125 264.585938 102.21875 260.667969 102.21875 Z M 260.667969 102.21875 "/><path style=" stroke:none;fill-rule:nonzero;fill:#f37f00;fill-opacity:1;" d="M 275.859375 133.035156 C 274.972656 133.035156 274.089844 132.746094 273.34375 132.160156 C 272.351562 131.375 263.722656 124.289062 264.527344 115.632812 C 264.980469 110.78125 268.160156 106.777344 273.976562 103.726562 C 275.953125 102.691406 278.421875 103.453125 279.449219 105.441406 C 280.496094 107.425781 279.730469 109.875 277.746094 110.917969 C 274.519531 112.605469 272.789062 114.449219 272.613281 116.386719 C 272.296875 119.804688 276.355469 124.203125 278.378906 125.796875 C 280.136719 127.183594 280.433594 129.734375 279.042969 131.496094 C 278.246094 132.503906 277.058594 133.035156 275.859375 133.035156 Z M 275.859375 133.035156 "/></g></svg>