<svg xmlns="http://www.w3.org/2000/svg" xmlns:xlink="http://www.w3.org/1999/xlink" width="500" zoomAndPan="magnify" viewBox="0 0 375 374.999991" height="500" preserveAspectRatio="xMidYMid meet" version="1.2"><defs><clipPath id="f67a8a8817"><path d="M 32.882812 9.21875 L 341.882812 9.21875 L 341.882812 365.46875 L 32.882812 365.46875 Z M 32.882812 9.21875 "/></clipPath></defs><g id="f62c50b9d6"><g clip-rule="nonzero" clip-path="url(#f67a8a8817)"><path style=" stroke:none;fill-rule:evenodd;fill:#000000;fill-opacity:1;" d="M 340.382812 134.261719 L 340.359375 134.226562 C 339.871094 133.3125 339.242188 132.445312 338.492188 131.648438 L 338.292969 131.449219 C 338.292969 131.449219 269.289062 62.453125 269.289062 62.453125 C 268.804688 61.644531 268.222656 60.898438 267.558594 60.222656 C 265.324219 57.976562 262.296875 56.71875 259.125 56.71875 L 92.371094 56.71875 C 85.816406 56.71875 80.496094 62.039062 80.496094 68.59375 L 80.496094 353.59375 C 80.496094 360.148438 85.816406 365.46875 92.371094 365.46875 L 329.894531 365.46875 C 336.449219 365.46875 341.769531 360.148438 341.769531 353.59375 L 341.769531 139.84375 C 341.769531 137.824219 341.273438 135.925781 340.382812 134.261719 Z M 246.761719 139.761719 C 246.738281 142.929688 247.984375 145.96875 250.207031 148.214844 C 252.4375 150.460938 255.480469 151.71875 258.636719 151.71875 L 318.019531 151.71875 C 318.019531 151.71875 318.019531 341.71875 318.019531 341.71875 C 318.019531 341.71875 104.246094 341.71875 104.246094 341.71875 C 104.246094 341.71875 104.246094 80.46875 104.246094 80.46875 C 104.246094 80.46875 247.164062 80.46875 247.164062 80.46875 C 247.164062 80.46875 246.761719 139.761719 246.761719 139.761719 Z M 234.886719 9.21875 L 44.867188 9.21875 C 38.3125 9.21875 32.992188 14.539062 32.992188 21.09375 L 32.992188 306.09375 C 32.992188 312.648438 38.3125 317.96875 44.867188 317.96875 C 51.421875 317.96875 56.742188 312.648438 56.742188 306.09375 L 56.742188 32.96875 C 56.742188 32.96875 234.886719 32.96875 234.886719 32.96875 C 241.441406 32.96875 246.761719 27.648438 246.761719 21.09375 C 246.761719 14.539062 241.441406 9.21875 234.886719 9.21875 Z M 139.875 263.6875 L 270.515625 263.6875 C 277.070312 263.6875 282.390625 258.355469 282.390625 251.8125 C 282.390625 245.257812 277.070312 239.9375 270.515625 239.9375 L 139.875 239.9375 C 133.320312 239.9375 128 245.257812 128 251.8125 C 128 258.355469 133.320312 263.6875 139.875 263.6875 Z M 139.875 222.96875 L 234.886719 222.96875 C 241.441406 222.96875 246.761719 217.648438 246.761719 211.09375 C 246.761719 204.539062 241.441406 199.21875 234.886719 199.21875 L 139.875 199.21875 C 133.320312 199.21875 128 204.539062 128 211.09375 C 128 217.648438 133.320312 222.96875 139.875 222.96875 Z M 139.875 182.25 L 211.132812 182.25 C 217.6875 182.25 223.007812 176.929688 223.007812 170.375 C 223.007812 163.832031 217.6875 158.5 211.132812 158.5 L 139.875 158.5 C 133.320312 158.5 128 163.832031 128 170.375 C 128 176.929688 133.320312 182.25 139.875 182.25 Z M 270.597656 127.96875 L 301.226562 127.96875 L 270.800781 97.554688 Z M 270.597656 127.96875 "/></g></g></svg>