<svg xmlns="http://www.w3.org/2000/svg" xmlns:xlink="http://www.w3.org/1999/xlink" width="500" zoomAndPan="magnify" viewBox="0 0 375 374.999991" height="500" preserveAspectRatio="xMidYMid meet" version="1.2"><g id="885cd86d04"><path style=" stroke:none;fill-rule:evenodd;fill:#fedd3a;fill-opacity:1;" d="M 363.980469 147.917969 C 358.425781 138.339844 348.910156 134.9375 339.230469 131.53125 C 315.476562 123.285156 290.84375 117.417969 266.1875 112.003906 C 255.53125 109.402344 247.265625 104.027344 242.070312 93.910156 C 234.707031 80.292969 226.9375 67.214844 218.492188 54.265625 C 199.660156 25.476562 177.382812 24.574219 156.507812 52.429688 C 145.765625 66.640625 136.203125 81.820312 127.179688 97.132812 C 120.347656 108.421875 111.140625 114.417969 98.292969 116.839844 C 74.441406 122.484375 50.597656 127.542969 28.113281 137.304688 C 4.511719 147.917969 0.0585938 164.175781 14.296875 186.429688 C 26.769531 206.050781 43.40625 222.441406 58.609375 239.910156 C 65.914062 248.414062 68.640625 257.332031 67.480469 269.015625 C 64.839844 292.9375 61.054688 317.121094 65.621094 341.300781 C 69.628906 362.527344 75.941406 369.875 93.453125 371.21875 C 107.359375 372.289062 119.410156 366.832031 130.785156 360.558594 C 145.09375 352.5 159.292969 343.046875 173.640625 334.226562 C 191.089844 323.117188 192.585938 323.386719 209.445312 334.992188 C 229.441406 348.46875 249.441406 362.128906 272.574219 369.15625 C 289.320312 374.351562 302.667969 366.070312 306.410156 349.097656 C 311.195312 327.867188 308.242188 306.550781 304.996094 285.816406 C 301.304688 263.285156 304.4375 244.386719 323 228.800781 C 336.257812 217.339844 348.753906 204.4375 358.785156 189.792969 C 367.628906 176.851562 374.953125 163.242188 363.980469 147.917969 Z M 363.980469 147.917969 "/><path style=" stroke:none;fill-rule:nonzero;fill:#ff8c75;fill-opacity:1;" d="M 292.902344 207.660156 C 292.902344 219.664062 280.792969 229.609375 265.832031 229.609375 C 250.898438 229.609375 238.757812 219.664062 238.757812 207.660156 C 238.757812 195.523438 250.898438 185.675781 265.832031 185.675781 C 280.792969 185.675781 292.902344 195.523438 292.902344 207.660156 Z M 292.902344 207.660156 "/><path style=" stroke:none;fill-rule:nonzero;fill:#ff4347;fill-opacity:0.6;" d="M 265.988281 215.222656 C 264.632812 215.222656 263.535156 214.125 263.535156 212.769531 L 263.535156 202.558594 C 263.535156 201.203125 264.632812 200.101562 265.988281 200.101562 C 267.34375 200.101562 268.441406 201.203125 268.441406 202.558594 L 268.441406 212.769531 C 268.445312 214.121094 267.34375 215.222656 265.988281 215.222656 Z M 265.988281 215.222656 "/><path style=" stroke:none;fill-rule:nonzero;fill:#ff4347;fill-opacity:0.6;" d="M 280.136719 215.222656 C 278.863281 215.222656 277.785156 214.238281 277.691406 212.945312 L 276.953125 202.734375 C 276.855469 201.382812 277.875 200.207031 279.226562 200.109375 C 280.574219 200.015625 281.753906 201.03125 281.855469 202.378906 L 282.589844 212.589844 C 282.691406 213.941406 281.675781 215.121094 280.320312 215.21875 C 280.257812 215.21875 280.199219 215.222656 280.136719 215.222656 Z M 280.136719 215.222656 "/><path style=" stroke:none;fill-rule:nonzero;fill:#ff8c75;fill-opacity:1;" d="M 136.988281 207.660156 C 136.988281 219.664062 124.804688 229.609375 109.847656 229.609375 C 94.890625 229.609375 82.792969 219.664062 82.792969 207.660156 C 82.792969 195.523438 94.890625 185.675781 109.847656 185.675781 C 124.804688 185.675781 136.988281 195.523438 136.988281 207.660156 Z M 136.988281 207.660156 "/><path style=" stroke:none;fill-rule:nonzero;fill:#ff4347;fill-opacity:0.6;" d="M 97.664062 215.3125 C 96.308594 215.3125 95.210938 214.214844 95.210938 212.859375 L 95.210938 202.601562 C 95.210938 201.246094 96.308594 200.148438 97.664062 200.148438 C 99.019531 200.148438 100.121094 201.246094 100.121094 202.601562 L 100.121094 212.859375 C 100.121094 214.214844 99.019531 215.3125 97.664062 215.3125 Z M 97.664062 215.3125 "/><path style=" stroke:none;fill-rule:nonzero;fill:#ff4347;fill-opacity:0.6;" d="M 111.835938 215.3125 C 110.558594 215.3125 109.480469 214.324219 109.386719 213.03125 L 108.652344 202.78125 C 108.554688 201.425781 109.570312 200.25 110.925781 200.152344 C 112.261719 200.074219 113.453125 201.070312 113.554688 202.425781 L 114.289062 212.679688 C 114.386719 214.03125 113.371094 215.207031 112.015625 215.304688 C 111.953125 215.308594 111.890625 215.3125 111.835938 215.3125 Z M 111.835938 215.3125 "/><path style=" stroke:none;fill-rule:nonzero;fill:#662a10;fill-opacity:1;" d="M 256.363281 176.089844 C 257.703125 174.746094 257.59375 172.640625 256.273438 171.386719 C 254.902344 170.136719 252.867188 170.136719 251.5 171.433594 C 244.535156 178.734375 237.886719 182.046875 231.53125 181.507812 C 222.859375 180.652344 217.351562 172.191406 217.332031 172.101562 C 216.386719 170.582031 214.308594 170.136719 212.695312 171.027344 C 211.171875 172.101562 210.703125 174.164062 211.664062 175.6875 C 211.839844 175.910156 213.8125 178.90625 217.21875 181.957031 L 213.886719 186.792969 C 212.847656 188.40625 213.230469 190.46875 214.847656 191.402344 C 215.378906 191.851562 216.078125 192.078125 216.679688 192.078125 C 217.777344 192.078125 218.832031 191.496094 219.480469 190.558594 L 222.726562 185.722656 C 224.609375 186.703125 226.9375 187.332031 229.265625 187.78125 L 229.785156 196.019531 C 229.890625 197.8125 231.371094 199.246094 233.1875 199.246094 C 233.1875 199.246094 233.234375 199.246094 233.296875 199.246094 C 235.199219 199.152344 236.636719 197.542969 236.472656 195.660156 L 235.984375 187.515625 C 238.402344 187.195312 240.886719 186.75 243.304688 185.628906 L 248.5 192.257812 C 249.148438 193.152344 250.160156 193.507812 251.121094 193.507812 C 251.835938 193.507812 252.625 193.242188 253.179688 192.796875 C 254.613281 191.628906 254.902344 189.621094 253.71875 188.136719 L 249.015625 181.957031 C 251.390625 180.167969 253.875 178.644531 256.363281 176.089844 Z M 256.363281 176.089844 "/><path style=" stroke:none;fill-rule:nonzero;fill:#662a10;fill-opacity:1;" d="M 165.734375 172.011719 C 164.148438 170.984375 162.109375 171.433594 161.125 172.957031 C 161.011719 173.046875 155.570312 181.328125 146.859375 182.003906 C 140.589844 182.542969 133.9375 179.179688 126.996094 171.835938 C 125.699219 170.410156 123.640625 170.355469 122.273438 171.660156 C 120.90625 172.824219 120.839844 175.0625 122.097656 176.40625 C 124.535156 179.050781 127.066406 180.480469 129.484375 182.230469 L 124.515625 188.496094 C 123.351562 189.929688 123.574219 192.082031 125.007812 193.152344 C 125.65625 193.601562 126.394531 193.960938 127.15625 193.960938 C 128.097656 193.960938 129.082031 193.421875 129.753906 192.707031 L 135.085938 186.074219 C 137.507812 187.199219 139.921875 187.695312 142.363281 187.964844 L 141.78125 196.292969 C 141.597656 198.082031 143.011719 199.738281 144.847656 199.875 C 144.890625 199.921875 144.980469 199.921875 145.09375 199.921875 C 146.773438 199.921875 148.316406 198.535156 148.429688 196.824219 L 149.054688 188.269531 C 151.386719 187.875 153.734375 187.332031 155.636719 186.433594 L 158.796875 191.1875 C 159.441406 192.257812 160.429688 192.796875 161.59375 192.796875 C 162.21875 192.796875 162.828125 192.574219 163.386719 192.304688 C 164.929688 191.1875 165.425781 189.214844 164.414062 187.691406 L 161.214844 182.667969 C 164.664062 179.71875 166.585938 176.765625 166.722656 176.671875 C 167.707031 175.0625 167.285156 172.953125 165.734375 172.011719 Z M 165.734375 172.011719 "/><path style=" stroke:none;fill-rule:nonzero;fill:#662a10;fill-opacity:1;" d="M 203.898438 209.722656 C 203.898438 202.691406 195.1875 197.273438 184.03125 197.273438 C 182.421875 197.273438 181.140625 198.570312 181.140625 200.136719 C 181.140625 201.753906 182.421875 203.007812 184.03125 203.007812 C 192.09375 203.007812 198.121094 206.496094 198.121094 209.722656 C 198.121094 212.8125 192.097656 216.261719 184.03125 216.261719 C 182.421875 216.261719 181.140625 217.511719 181.140625 219.128906 C 181.140625 219.3125 181.394531 219.3125 181.457031 219.402344 C 181.394531 219.582031 181.140625 219.582031 181.140625 219.753906 C 181.140625 221.367188 182.421875 222.625 184.03125 222.625 C 192.09375 222.625 198.121094 226.121094 198.121094 229.164062 C 198.121094 232.296875 192.097656 235.792969 184.03125 235.792969 C 182.421875 235.792969 181.140625 237.046875 181.140625 238.707031 C 181.140625 240.273438 182.421875 241.523438 184.03125 241.523438 C 195.386719 241.523438 203.898438 236.285156 203.898438 229.164062 C 203.898438 225.042969 200.671875 221.546875 195.859375 219.402344 C 200.625 217.160156 203.898438 213.757812 203.898438 209.722656 Z M 203.898438 209.722656 "/><path style=" stroke:none;fill-rule:nonzero;fill:#ff7788;fill-opacity:1;" d="M 358.96875 31.296875 C 353.164062 19.160156 338.675781 13.832031 326.476562 19.695312 L 318.65625 23.324219 L 314.199219 15.890625 C 307.28125 4.339844 292.230469 0.53125 280.628906 7.5625 C 269.082031 14.503906 265.410156 29.507812 272.328125 41.152344 L 274.207031 44.238281 L 299.464844 86.292969 L 344.003906 65.421875 L 347.296875 63.808594 C 359.496094 58.078125 364.71875 43.484375 358.96875 31.296875 Z M 358.96875 31.296875 "/><path style=" stroke:none;fill-rule:nonzero;fill:#ffffff;fill-opacity:1;" d="M 348.125 34.167969 C 346.695312 38.019531 341.160156 39.453125 335.832031 37.4375 C 330.574219 35.328125 327.390625 30.585938 328.824219 26.824219 C 330.371094 22.96875 335.832031 21.628906 341.140625 23.644531 C 346.472656 25.746094 349.535156 30.492188 348.125 34.167969 Z M 348.125 34.167969 "/><path style=" stroke:none;fill-rule:nonzero;fill:#ff7788;fill-opacity:1;" d="M 64.121094 61.128906 C 56.238281 57.636719 46.921875 61.128906 43.429688 69.054688 L 41.148438 74.113281 L 35.882812 72.371094 C 27.667969 69.640625 18.710938 74.070312 16.003906 82.359375 C 13.265625 90.640625 17.792969 99.46875 26.03125 102.242188 L 28.226562 102.957031 L 58.207031 112.851562 L 71.15625 83.964844 L 72.054688 81.820312 C 75.628906 73.933594 71.980469 64.625 64.121094 61.128906 Z M 64.121094 61.128906 "/><path style=" stroke:none;fill-rule:nonzero;fill:#ffffff;fill-opacity:1;" d="M 60.023438 67.035156 C 60.964844 69.503906 58.90625 72.546875 55.4375 73.804688 C 51.984375 74.96875 48.496094 74.023438 47.574219 71.519531 C 46.675781 69.007812 48.808594 66.054688 52.230469 64.800781 C 55.722656 63.628906 59.167969 64.660156 60.023438 67.035156 Z M 60.023438 67.035156 "/></g></svg>