<svg xmlns="http://www.w3.org/2000/svg" xmlns:xlink="http://www.w3.org/1999/xlink" width="500" zoomAndPan="magnify" viewBox="0 0 375 374.999991" height="500" preserveAspectRatio="xMidYMid meet" version="1.2"><g id="2e7a4ffb21"><path style=" stroke:none;fill-rule:evenodd;fill:#fedd3a;fill-opacity:1;" d="M 363.914062 135.816406 C 358.359375 126.246094 348.867188 122.84375 339.191406 119.445312 C 315.464844 111.207031 290.84375 105.34375 266.171875 99.929688 C 255.519531 97.335938 247.234375 91.960938 242.042969 81.851562 C 234.703125 68.25 226.910156 55.179688 218.492188 42.246094 C 199.683594 13.472656 177.382812 12.582031 156.523438 40.414062 C 145.777344 54.605469 136.246094 69.769531 127.199219 85.070312 C 120.398438 96.347656 111.21875 102.339844 98.328125 104.761719 C 74.5 110.402344 50.640625 115.457031 28.214844 125.210938 C 4.566406 135.816406 0.09375 152.0625 14.324219 174.300781 C 26.816406 193.902344 43.476562 210.28125 58.703125 227.734375 C 65.953125 236.234375 68.683594 245.140625 67.523438 256.816406 C 64.921875 280.714844 61.121094 304.882812 65.636719 329.042969 C 69.671875 350.253906 75.984375 357.59375 93.492188 358.9375 C 107.363281 360.007812 119.457031 354.554688 130.828125 348.285156 C 145.109375 340.234375 159.304688 330.789062 173.636719 321.976562 C 191.09375 310.878906 192.613281 311.148438 209.441406 322.742188 C 229.417969 336.207031 249.476562 349.855469 272.582031 356.878906 C 289.324219 362.070312 302.664062 353.796875 306.421875 336.835938 C 311.171875 315.628906 308.214844 294.324219 304.996094 273.605469 C 301.320312 251.09375 304.40625 232.207031 322.996094 216.644531 C 336.246094 205.1875 348.691406 192.296875 358.714844 177.664062 C 367.582031 164.726562 374.929688 151.128906 363.914062 135.816406 Z M 363.914062 135.816406 "/><path style=" stroke:none;fill-rule:nonzero;fill:#ff8c75;fill-opacity:1;" d="M 293.703125 195.511719 C 293.703125 207.503906 281.613281 217.445312 266.671875 217.445312 C 251.714844 217.445312 239.628906 207.503906 239.628906 195.511719 C 239.628906 183.390625 251.714844 173.546875 266.671875 173.546875 C 281.617188 173.546875 293.703125 183.390625 293.703125 195.511719 Z M 293.703125 195.511719 "/><path style=" stroke:none;fill-rule:nonzero;fill:#ff4347;fill-opacity:0.6;" d="M 266.847656 203.066406 C 265.492188 203.066406 264.386719 201.96875 264.386719 200.613281 L 264.386719 190.414062 C 264.386719 189.058594 265.492188 187.957031 266.847656 187.957031 C 268.203125 187.957031 269.300781 189.054688 269.300781 190.414062 L 269.300781 200.613281 C 269.300781 201.96875 268.203125 203.066406 266.847656 203.066406 Z M 266.847656 203.066406 "/><path style=" stroke:none;fill-rule:nonzero;fill:#ff4347;fill-opacity:0.6;" d="M 281 203.066406 C 279.71875 203.066406 278.640625 202.078125 278.550781 200.785156 L 277.832031 190.582031 C 277.730469 189.230469 278.753906 188.0625 280.109375 187.964844 C 281.527344 187.890625 282.632812 188.890625 282.730469 190.242188 L 283.441406 200.441406 C 283.546875 201.792969 282.519531 202.964844 281.167969 203.058594 C 281.113281 203.0625 281.054688 203.066406 281 203.066406 Z M 281 203.066406 "/><path style=" stroke:none;fill-rule:nonzero;fill:#ff8c75;fill-opacity:1;" d="M 137.855469 195.511719 C 137.855469 207.503906 125.722656 217.445312 110.769531 217.445312 C 95.8125 217.445312 83.6875 207.503906 83.6875 195.511719 C 83.6875 183.390625 95.808594 173.546875 110.769531 173.546875 C 125.722656 173.546875 137.855469 183.390625 137.855469 195.511719 Z M 137.855469 195.511719 "/><path style=" stroke:none;fill-rule:nonzero;fill:#ff4347;fill-opacity:0.6;" d="M 98.542969 203.15625 C 97.183594 203.15625 96.089844 202.058594 96.089844 200.703125 L 96.089844 190.460938 C 96.089844 189.105469 97.1875 188.007812 98.542969 188.007812 C 99.902344 188.007812 101.007812 189.105469 101.007812 190.460938 L 101.007812 200.703125 C 101.007812 202.058594 99.898438 203.15625 98.542969 203.15625 Z M 98.542969 203.15625 "/><path style=" stroke:none;fill-rule:nonzero;fill:#ff4347;fill-opacity:0.6;" d="M 112.730469 203.15625 C 111.460938 203.15625 110.386719 202.171875 110.292969 200.882812 L 109.53125 190.640625 C 109.433594 189.289062 110.441406 188.109375 111.792969 188.011719 C 113.183594 187.914062 114.328125 188.929688 114.421875 190.28125 L 115.183594 200.523438 C 115.285156 201.871094 114.269531 203.050781 112.917969 203.148438 C 112.859375 203.15625 112.796875 203.15625 112.730469 203.15625 Z M 112.730469 203.15625 "/><path style=" stroke:none;fill-rule:nonzero;fill:#662a10;fill-opacity:1;" d="M 188.71875 216.953125 C 175.679688 216.953125 163.699219 211.800781 158.191406 203.828125 C 156.90625 201.980469 157.375 199.4375 159.222656 198.15625 C 161.082031 196.878906 163.617188 197.34375 164.902344 199.191406 C 168.875 204.9375 178.449219 208.792969 188.722656 208.792969 C 199.375 208.792969 209.117188 204.640625 212.964844 198.457031 C 214.160156 196.539062 216.679688 195.960938 218.585938 197.152344 C 220.5 198.339844 221.082031 200.855469 219.894531 202.765625 C 214.527344 211.382812 202.285156 216.953125 188.71875 216.953125 Z M 188.71875 216.953125 "/><path style=" stroke:none;fill-rule:nonzero;fill:#662a10;fill-opacity:1;" d="M 147.484375 190.414062 C 138.613281 190.414062 130.648438 184.242188 127.160156 174.75 C 126.175781 172.066406 127.515625 169.203125 130.152344 168.308594 C 132.796875 167.183594 135.660156 168.667969 136.652344 171.21875 C 138.707031 176.769531 142.917969 180.300781 147.488281 180.300781 C 152.1875 180.300781 156.4375 176.71875 158.410156 170.988281 C 159.214844 168.394531 162.085938 167.015625 164.769531 167.902344 C 167.453125 168.792969 168.878906 171.800781 167.949219 174.300781 C 164.582031 184.105469 156.613281 190.414062 147.484375 190.414062 Z M 147.484375 190.414062 "/><path style=" stroke:none;fill-rule:nonzero;fill:#662a10;fill-opacity:1;" d="M 229.910156 190.414062 C 221.042969 190.414062 213.027344 184.242188 209.535156 174.75 C 208.644531 172.066406 209.941406 169.203125 212.574219 168.308594 C 215.136719 167.183594 218.085938 168.667969 219.027344 171.21875 C 221.042969 176.769531 225.292969 180.300781 229.90625 180.300781 C 234.5625 180.300781 238.855469 176.71875 240.78125 170.988281 C 241.726562 168.394531 244.636719 167.015625 247.277344 167.902344 C 249.914062 168.792969 251.257812 171.800781 250.367188 174.300781 C 246.964844 184.105469 239 190.414062 229.910156 190.414062 Z M 229.910156 190.414062 "/></g></svg>