<svg xmlns="http://www.w3.org/2000/svg" xmlns:xlink="http://www.w3.org/1999/xlink" width="500" zoomAndPan="magnify" viewBox="0 0 375 374.999991" height="500" preserveAspectRatio="xMidYMid meet" version="1.2"><defs><clipPath id="7604f63a9e"><path d="M 17 11 L 365.839844 11 L 365.839844 361 L 17 361 Z M 17 11 "/></clipPath><clipPath id="b9c7a3f9e3"><path d="M 8.839844 39 L 130 39 L 130 161 L 8.839844 161 Z M 8.839844 39 "/></clipPath></defs><g id="d3f6a03ab4"><g clip-rule="nonzero" clip-path="url(#7604f63a9e)"><path style=" stroke:none;fill-rule:evenodd;fill:#000000;fill-opacity:1;" d="M 191.914062 53.464844 C 265.042969 53.464844 324.394531 112.8125 324.394531 185.945312 C 324.394531 259.074219 265.042969 318.425781 191.914062 318.425781 C 118.8125 318.425781 59.433594 259.074219 59.433594 185.945312 C 59.433594 145.558594 77.53125 109.382812 106.066406 85.089844 C 114.851562 77.589844 115.910156 64.367188 108.40625 55.582031 C 100.933594 46.796875 87.710938 45.765625 78.925781 53.238281 C 41.414062 85.230469 17.597656 132.839844 17.597656 185.945312 C 17.597656 282.136719 95.71875 360.261719 191.914062 360.261719 C 288.136719 360.261719 366.230469 282.136719 366.230469 185.945312 C 366.230469 89.75 288.136719 11.628906 191.914062 11.628906 C 180.367188 11.628906 170.996094 21 170.996094 32.546875 C 170.996094 44.09375 180.367188 53.464844 191.914062 53.464844 Z M 191.914062 53.464844 "/></g><g clip-rule="nonzero" clip-path="url(#b9c7a3f9e3)"><path style=" stroke:none;fill-rule:evenodd;fill:#000000;fill-opacity:1;" d="M 29.367188 81.355469 L 87.324219 81.355469 C 87.324219 81.355469 87.324219 139.308594 87.324219 139.308594 C 87.324219 150.855469 96.695312 160.226562 108.242188 160.226562 C 119.785156 160.226562 129.160156 150.855469 129.160156 139.308594 L 129.160156 60.4375 C 129.160156 48.890625 119.785156 39.519531 108.242188 39.519531 L 29.367188 39.519531 C 17.820312 39.519531 8.449219 48.890625 8.449219 60.4375 C 8.449219 71.984375 17.820312 81.355469 29.367188 81.355469 Z M 29.367188 81.355469 "/></g></g></svg>