<svg xmlns="http://www.w3.org/2000/svg" xmlns:xlink="http://www.w3.org/1999/xlink" width="500" zoomAndPan="magnify" viewBox="0 0 375 374.999991" height="500" preserveAspectRatio="xMidYMid meet" version="1.2"><g id="a8109ed2cf"><path style=" stroke:none;fill-rule:evenodd;fill:#fedd3a;fill-opacity:1;" d="M 363.925781 135.816406 C 358.34375 126.246094 348.835938 122.84375 339.210938 119.445312 C 315.441406 111.203125 290.816406 105.339844 266.164062 99.929688 C 255.488281 97.332031 247.246094 91.960938 242.054688 81.851562 C 234.695312 68.25 226.949219 55.179688 218.484375 42.246094 C 199.664062 13.472656 177.382812 12.578125 156.542969 40.414062 C 145.777344 54.601562 136.214844 69.769531 127.199219 85.070312 C 120.390625 96.347656 111.167969 102.339844 98.316406 104.757812 C 74.476562 110.398438 50.636719 115.453125 28.160156 125.207031 C 4.542969 135.816406 0.109375 152.0625 14.347656 174.300781 C 26.816406 193.902344 43.46875 210.28125 58.671875 227.730469 C 65.921875 236.230469 68.675781 245.136719 67.515625 256.8125 C 64.871094 280.710938 61.089844 304.875 65.632812 329.039062 C 69.660156 350.25 75.949219 357.589844 93.496094 358.929688 C 107.359375 360 119.445312 354.546875 130.820312 348.28125 C 145.101562 340.226562 159.320312 330.785156 173.621094 321.96875 C 191.101562 310.867188 192.605469 311.136719 209.417969 322.734375 C 229.425781 336.195312 249.417969 349.84375 272.570312 356.871094 C 289.289062 362.0625 302.625 353.785156 306.394531 336.828125 C 311.160156 315.617188 308.230469 294.316406 304.984375 273.597656 C 301.285156 251.085938 304.417969 232.203125 322.933594 216.632812 C 336.234375 205.179688 348.679688 192.289062 358.710938 177.65625 C 367.597656 164.726562 374.917969 151.128906 363.925781 135.816406 Z M 363.925781 135.816406 "/><path style=" stroke:none;fill-rule:nonzero;fill:#662a10;fill-opacity:1;" d="M 159.515625 175.109375 C 159.515625 183.425781 154.457031 190.320312 148.238281 190.320312 C 141.992188 190.320312 136.953125 183.425781 136.953125 175.109375 C 136.953125 166.871094 141.996094 159.984375 148.238281 159.984375 C 154.457031 159.984375 159.515625 166.875 159.515625 175.109375 Z M 159.515625 175.109375 "/><path style=" stroke:none;fill-rule:nonzero;fill:#662a10;fill-opacity:1;" d="M 237.484375 175.109375 C 237.484375 183.425781 232.425781 190.320312 226.257812 190.320312 C 219.941406 190.320312 214.855469 183.425781 214.855469 175.109375 C 214.855469 166.871094 219.941406 159.984375 226.257812 159.984375 C 232.425781 159.984375 237.484375 166.875 237.484375 175.109375 Z M 237.484375 175.109375 "/><path style=" stroke:none;fill-rule:nonzero;fill:#ff8c75;fill-opacity:1;" d="M 292.871094 195.511719 C 292.871094 207.5 280.738281 217.441406 265.78125 217.441406 C 250.832031 217.441406 238.742188 207.503906 238.742188 195.511719 C 238.742188 183.382812 250.832031 173.546875 265.78125 173.546875 C 280.738281 173.546875 292.871094 183.386719 292.871094 195.511719 Z M 292.871094 195.511719 "/><path style=" stroke:none;fill-rule:nonzero;fill:#ff4347;fill-opacity:0.6;" d="M 265.945312 203.0625 C 264.585938 203.0625 263.488281 201.964844 263.488281 200.613281 L 263.488281 190.414062 C 263.488281 189.058594 264.585938 187.957031 265.945312 187.957031 C 267.296875 187.957031 268.394531 189.054688 268.394531 190.414062 L 268.394531 200.613281 C 268.394531 201.96875 267.296875 203.0625 265.945312 203.0625 Z M 265.945312 203.0625 "/><path style=" stroke:none;fill-rule:nonzero;fill:#ff4347;fill-opacity:0.6;" d="M 280.089844 203.0625 C 278.8125 203.0625 277.734375 202.082031 277.640625 200.789062 L 276.902344 190.585938 C 276.804688 189.238281 277.820312 188.0625 279.171875 187.964844 C 280.527344 187.867188 281.699219 188.882812 281.796875 190.234375 L 282.539062 200.433594 C 282.636719 201.785156 281.625 202.960938 280.273438 203.058594 C 280.210938 203.0625 280.148438 203.0625 280.089844 203.0625 Z M 280.089844 203.0625 "/><path style=" stroke:none;fill-rule:nonzero;fill:#ff8c75;fill-opacity:1;" d="M 136.953125 195.511719 C 136.953125 207.5 124.820312 217.441406 109.847656 217.441406 C 94.914062 217.441406 82.824219 207.503906 82.824219 195.511719 C 82.824219 183.382812 94.914062 173.546875 109.847656 173.546875 C 124.820312 173.546875 136.953125 183.386719 136.953125 195.511719 Z M 136.953125 195.511719 "/><path style=" stroke:none;fill-rule:nonzero;fill:#ff4347;fill-opacity:0.6;" d="M 97.664062 203.152344 C 96.3125 203.152344 95.210938 202.054688 95.210938 200.699219 L 95.210938 190.457031 C 95.210938 189.101562 96.3125 188.003906 97.664062 188.003906 C 99.019531 188.003906 100.121094 189.101562 100.121094 190.457031 L 100.121094 200.699219 C 100.121094 202.054688 99.023438 203.152344 97.664062 203.152344 Z M 97.664062 203.152344 "/><path style=" stroke:none;fill-rule:nonzero;fill:#ff4347;fill-opacity:0.6;" d="M 111.8125 203.152344 C 110.535156 203.152344 109.457031 202.164062 109.367188 200.871094 L 108.648438 190.625 C 108.554688 189.273438 109.574219 188.101562 110.925781 188.007812 C 112.25 187.898438 113.449219 188.933594 113.546875 190.285156 L 114.265625 200.527344 C 114.363281 201.878906 113.339844 203.050781 111.984375 203.148438 C 111.929688 203.152344 111.871094 203.152344 111.8125 203.152344 Z M 111.8125 203.152344 "/><path style=" stroke:none;fill-rule:nonzero;fill:#662a10;fill-opacity:1;" d="M 207.085938 219.40625 C 206.011719 219.40625 204.964844 218.828125 204.375 217.925781 C 199.476562 210.191406 193.609375 205.890625 187.054688 205.089844 C 174.917969 203.570312 164.015625 214.167969 163.878906 214.257812 C 162.628906 215.46875 160.640625 215.378906 159.402344 214.21875 C 158.125 212.960938 158.21875 210.90625 159.542969 209.742188 C 160.03125 209.203125 172.859375 197.121094 187.835938 198.820312 C 196.359375 199.8125 203.75 205.089844 209.703125 214.570312 C 210.683594 216 210.222656 217.980469 208.742188 218.960938 C 208.25 219.234375 207.667969 219.40625 207.085938 219.40625 Z M 207.085938 219.40625 "/><path style=" stroke:none;fill-rule:nonzero;fill:#34bbef;fill-opacity:1;" d="M 232.363281 191.800781 C 231.714844 191.445312 228.796875 198.550781 226.808594 204.195312 C 223.742188 212.476562 224.949219 221.203125 234.003906 225.054688 C 239.367188 227.375 245.777344 226.167969 248.839844 219.410156 C 253.691406 208.625 239.300781 197.257812 232.363281 191.800781 Z M 232.363281 191.800781 "/><path style=" stroke:none;fill-rule:nonzero;fill:#662a10;fill-opacity:1;" d="M 135.070312 168.289062 C 129.324219 168.289062 125.507812 166.996094 125.164062 166.875 C 123.039062 166.125 121.925781 163.792969 122.675781 161.671875 C 123.421875 159.554688 125.742188 158.441406 127.859375 159.175781 C 128.476562 159.382812 142.695312 163.992188 157.324219 151.191406 C 159.023438 149.707031 161.601562 149.878906 163.082031 151.574219 C 164.566406 153.273438 164.394531 155.847656 162.699219 157.328125 C 152.492188 166.253906 142.269531 168.289062 135.070312 168.289062 Z M 135.070312 168.289062 "/><path style=" stroke:none;fill-rule:nonzero;fill:#662a10;fill-opacity:1;" d="M 234.375 168.289062 C 227.179688 168.289062 216.953125 166.253906 206.757812 157.328125 C 205.054688 155.84375 204.890625 153.265625 206.367188 151.570312 C 207.851562 149.878906 210.429688 149.707031 212.128906 151.1875 C 226.929688 164.136719 241.421875 159.234375 241.574219 159.183594 C 243.691406 158.433594 246.03125 159.546875 246.773438 161.671875 C 247.523438 163.792969 246.414062 166.121094 244.292969 166.875 C 243.941406 166.996094 240.121094 168.289062 234.375 168.289062 Z M 234.375 168.289062 "/></g></svg>